<?xml version="1.0" standalone="no"?>
<!DOCTYPE svg PUBLIC "-//W3C//DTD SVG 20010904//EN"
 "http://www.w3.org/TR/2001/REC-SVG-20010904/DTD/svg10.dtd">
<svg version="1.0" xmlns="http://www.w3.org/2000/svg"
 width="2305.000000pt" height="2305.000000pt" viewBox="0 0 2305.000000 2305.000000"
 preserveAspectRatio="xMidYMid meet">
<metadata>
Created by potrace 1.11, written by Peter Selinger 2001-2013
</metadata>
<g transform="translate(0.000000,2305.000000) scale(0.100000,-0.100000)"
fill="#000000" stroke="none">
<path d="M11486 23034 c-117 -43 -247 -201 -360 -439 -29 -60 -1087 -2489
-2351 -5397 l-2300 -5287 -111 -76 c-161 -110 -313 -234 -440 -360 -339 -336
-417 -613 -237 -833 31 -38 124 -115 171 -141 12 -7 7 -36 -27 -182 -154 -661
-256 -1362 -292 -2009 -15 -260 -6 -829 16 -1040 49 -478 146 -889 283 -1190
90 -196 371 -464 632 -601 87 -45 250 -206 323 -319 65 -100 231 -434 336
-675 451 -1033 1121 -2173 1704 -2900 261 -325 623 -703 868 -906 457 -379
898 -598 1335 -664 132 -20 470 -20 634 0 1222 148 2253 961 3252 2565 365
585 751 1331 1163 2245 131 291 296 588 367 662 48 49 119 89 245 137 164 63
247 116 343 223 187 209 318 520 380 904 58 365 91 1187 71 1789 -28 812 -92
1358 -238 2026 -4 18 6 27 56 55 83 44 141 96 176 160 27 49 30 63 30 144 0
84 -3 95 -38 167 -68 140 -226 312 -427 465 l-95 72 -2440 5403 c-1342 2972
-2465 5462 -2496 5535 -163 379 -343 537 -533 467z m2101 -5346 c1114 -2460
2027 -4480 2031 -4488 3 -8 -21 9 -54 39 -356 324 -980 660 -1609 864 -497
162 -984 258 -1585 314 -154 14 -292 18 -655 18 -493 0 -600 -7 -944 -61 -85
-13 -157 -22 -159 -19 -3 2 205 1743 462 3867 256 2125 466 3870 466 3878 0
13 -2 13 -11 0 -9 -12 -10 -12 -5 3 3 10 6 21 6 23 0 3 5 2 11 -1 6 -4 10 -1
8 6 -3 24 1 43 7 36 4 -3 917 -2019 2031 -4479z m-3567 117 c-825 -2347 -1503
-4272 -1506 -4276 -2 -4 -49 -37 -103 -72 -334 -219 -671 -494 -939 -765
l-123 -125 24 54 c13 30 950 2170 2082 4757 1132 2586 2060 4700 2062 4699 2
-2 -672 -1925 -1497 -4272z m2390 -3885 c612 -34 1153 -168 1659 -411 432
-207 791 -466 1126 -810 179 -184 396 -453 350 -435 -122 49 -331 94 -585 125
-386 48 -956 92 -1225 95 -167 1 -171 0 -226 -26 -75 -37 -134 -99 -160 -168
-17 -45 -20 -71 -17 -140 6 -116 34 -169 130 -242 78 -60 142 -74 483 -108
717 -72 1176 -147 1443 -236 395 -132 641 -323 712 -553 l21 -65 -36 -1466
c-19 -806 -38 -1520 -41 -1587 l-6 -121 -83 67 c-392 321 -946 575 -1627 747
-312 78 -740 151 -1023 175 -77 6 -145 13 -151 14 -19 6 -23 172 -30 1205 -6
1062 -11 1195 -43 1258 -50 98 -161 142 -276 111 -51 -14 -130 -93 -144 -146
-8 -26 -11 -448 -11 -1323 0 -1080 -2 -1299 -15 -1375 -47 -292 -185 -555
-369 -703 -211 -171 -446 -239 -786 -228 -327 10 -536 86 -722 264 -165 157
-267 360 -320 637 -21 108 -22 136 -27 1421 l-6 1311 -30 48 c-88 142 -296
139 -382 -5 l-33 -54 0 -1087 c0 -597 -3 -1126 -6 -1176 l-7 -90 -91 -17
c-127 -24 -421 -97 -611 -151 -661 -190 -1457 -526 -1980 -836 l-80 -47 -12
34 c-35 98 -36 180 -34 1539 2 1270 3 1344 21 1421 60 258 204 491 392 632 73
56 197 116 298 145 324 94 991 194 1517 226 83 6 182 17 220 26 149 37 261
113 309 211 24 49 26 62 22 137 -15 279 -283 412 -773 386 -462 -25 -885 -50
-920 -54 l-40 -6 125 122 c638 618 1244 949 2095 1143 568 130 1406 199 2005
166z m4334 -3733 c29 -38 53 -92 90 -202 60 -178 77 -277 130 -740 56 -495 61
-578 61 -1105 -1 -480 -7 -631 -50 -1242 -10 -135 -67 -298 -148 -418 -96
-143 -216 -244 -408 -346 -68 -36 -151 -85 -184 -109 -75 -53 -168 -150 -224
-233 -68 -101 -243 -444 -371 -727 -249 -553 -537 -1144 -735 -1510 -380 -702
-737 -1246 -1114 -1700 -163 -196 -501 -533 -671 -669 -386 -309 -761 -504
-1164 -606 -201 -51 -345 -71 -556 -77 -192 -6 -295 3 -443 41 -178 46 -198
57 -341 191 -245 230 -538 561 -769 870 -799 1069 -1356 2416 -1681 4070 -55
283 -71 379 -90 565 -27 262 -30 324 -15 317 8 -3 75 -33 149 -67 807 -369
1833 -645 2725 -734 367 -37 919 -48 1245 -26 988 69 1909 330 2730 776 91 49
170 90 176 92 18 5 159 -152 213 -236 85 -133 100 -152 134 -172 61 -38 127
-23 195 43 48 47 67 100 57 156 -12 68 -170 336 -296 503 -82 108 -226 250
-320 315 -96 66 -266 156 -346 182 -72 24 -169 27 -216 7 -44 -19 -92 -71
-117 -130 -42 -94 -8 -148 168 -262 203 -132 272 -179 272 -185 0 -9 -183 -93
-360 -164 -1383 -561 -2991 -727 -4390 -454 -462 90 -938 235 -1361 413 -155
66 -549 256 -549 266 0 4 77 47 171 96 272 141 321 200 269 323 -31 70 -87
117 -158 132 -72 14 -172 -4 -295 -54 l-85 -34 5 41 c5 40 39 284 50 360 6 39
6 39 137 101 232 111 450 189 718 256 300 75 724 133 937 127 l104 -3 42 -115
c89 -245 188 -404 355 -570 63 -64 149 -138 190 -165 277 -184 595 -265 990
-252 444 14 780 147 1045 413 164 165 279 354 359 594 l45 134 43 -2 c168 -10
487 -56 718 -103 694 -142 1299 -396 1731 -724 57 -44 183 -157 279 -251 185
-180 240 -224 330 -261 165 -68 273 23 315 267 7 41 18 170 24 285 27 486 132
2311 141 2440 15 205 39 305 75 305 8 0 25 -15 39 -33z"/>
<path d="M8262 10429 c-100 -50 -170 -146 -203 -279 -17 -68 -17 -310 0 -399
18 -94 49 -169 88 -212 l34 -37 -58 -12 c-222 -44 -446 -139 -576 -244 -84
-69 -107 -138 -67 -203 24 -40 57 -62 103 -70 29 -4 53 3 134 45 121 62 272
115 407 143 121 26 349 31 466 10 107 -19 252 -66 345 -113 101 -51 156 -68
223 -68 39 0 57 5 72 20 52 52 -1 187 -109 277 -145 120 -287 182 -485 211
l-114 16 16 23 c33 51 44 135 49 373 6 256 -3 353 -38 423 -62 123 -165 158
-287 96z"/>
<path d="M14653 10404 c-109 -53 -189 -174 -214 -317 -15 -89 -6 -316 15 -404
20 -81 52 -147 87 -182 l28 -29 -62 -11 c-189 -36 -444 -142 -553 -230 -78
-62 -104 -102 -104 -159 0 -38 5 -50 39 -83 56 -57 102 -55 235 10 412 201
838 211 1201 28 139 -70 255 -88 295 -45 43 46 9 157 -73 236 -152 149 -342
236 -565 257 l-71 7 19 37 c28 55 40 139 47 321 8 230 -8 394 -44 468 -57 115
-167 153 -280 96z"/>
<path d="M10738 5435 c-96 -54 -41 -202 112 -300 149 -96 331 -171 487 -201
120 -22 326 -15 438 16 159 43 335 137 403 214 41 47 66 116 58 161 -8 41 -46
70 -107 80 -57 10 -91 -1 -155 -51 -134 -104 -259 -152 -419 -161 -172 -9
-365 45 -532 148 -43 26 -98 60 -122 75 -52 33 -124 41 -163 19z"/>
</g>
</svg>
